<svg width="35" height="39" viewBox="0 0 35 39" fill="none" xmlns="http://www.w3.org/2000/svg">
<path fill-rule="evenodd" clip-rule="evenodd" d="M11.6667 3.25002H29.1667C30.7708 3.25002 32.0833 4.71252 32.0833 6.50002V26C32.0833 27.7875 30.7708 29.25 29.1667 29.25H11.6667C10.0625 29.25 8.75 27.7875 8.75 26V6.50002C8.75 4.71252 10.0625 3.25002 11.6667 3.25002ZM2.91669 9.75001H5.83335V32.5H26.25V35.75H5.83335C4.22919 35.75 2.91669 34.2875 2.91669 32.5V9.75001ZM29.1667 26H11.6667V6.50002H29.1667V26ZM26.25 14.625H14.5833V17.875H26.25V14.625ZM14.5833 19.5H20.4166V22.75H14.5833V19.5ZM26.25 9.75001H14.5833V13H26.25V9.75001Z" fill="black" fill-opacity="0.54"/>
</svg>
