<svg width="28" height="28" viewBox="0 0 28 28" fill="none" xmlns="http://www.w3.org/2000/svg">
<g id="search_24px">
<path id="icon/action/search_24px" fill-rule="evenodd" clip-rule="evenodd" d="M17.459 16.6308H18.3807L24.2024 22.4642L22.464 24.2025L16.6307 18.3808V17.4592L16.3157 17.1325C14.9857 18.2758 13.259 18.9642 11.3807 18.9642C7.19236 18.9642 3.79736 15.5692 3.79736 11.3808C3.79736 7.19249 7.19236 3.79749 11.3807 3.79749C15.569 3.79749 18.964 7.19249 18.964 11.3808C18.964 13.2592 18.2757 14.9858 17.1324 16.3158L17.459 16.6308ZM6.1307 11.3808C6.1307 14.2858 8.4757 16.6308 11.3807 16.6308C14.2857 16.6308 16.6307 14.2858 16.6307 11.3808C16.6307 8.47584 14.2857 6.13084 11.3807 6.13084C8.4757 6.13084 6.1307 8.47584 6.1307 11.3808Z" fill="black" fill-opacity="0.54"/>
</g>
</svg>
