<svg width="24" height="24" viewBox="0 0 24 24" fill="none" xmlns="http://www.w3.org/2000/svg">
<g id="brightness_5_24px">
<path id="icon/image/brightness_5_24px" fill-rule="evenodd" clip-rule="evenodd" d="M20 4V8.69L23.31 12L20 15.31V20H15.31L12 23.31L8.69 20H4V15.31L0.690002 12L4 8.69V4H8.69L12 0.690002L15.31 4H20ZM18 18V14.48L20.48 12L18 9.52V6H14.48L12 3.52L9.52 6H6V9.52L3.52 12L6 14.48V18H9.52L12 20.48L14.48 18H18ZM12 6.5C8.97 6.5 6.5 8.97 6.5 12C6.5 15.03 8.97 17.5 12 17.5C15.03 17.5 17.5 15.03 17.5 12C17.5 8.97 15.03 6.5 12 6.5ZM8.5 12C8.5 13.93 10.07 15.5 12 15.5C13.93 15.5 15.5 13.93 15.5 12C15.5 10.07 13.93 8.5 12 8.5C10.07 8.5 8.5 10.07 8.5 12Z" fill="black" fill-opacity="0.54"/>
</g>
</svg>
